<mxfile host="65bd71144e">
    <diagram id="lut3Ta-v0c976ASl9qIL" name="ページ1">
        <mxGraphModel dx="743" dy="345" grid="1" gridSize="10" guides="1" tooltips="1" connect="1" arrows="1" fold="1" page="1" pageScale="1" pageWidth="827" pageHeight="1169" math="0" shadow="0">
            <root>
                <mxCell id="0"/>
                <mxCell id="1" parent="0"/>
                <mxCell id="rlpLy5eyP_Tx5Tw7G8M6-1" value="" style="rounded=0;whiteSpace=wrap;html=1;" parent="1" vertex="1">
                    <mxGeometry x="250" y="120" width="290" height="200" as="geometry"/>
                </mxCell>
                <mxCell id="rlpLy5eyP_Tx5Tw7G8M6-4" value="{PRJ}-{ENV}-main-vnet" style="text;html=1;strokeColor=none;fillColor=none;align=right;verticalAlign=middle;whiteSpace=wrap;rounded=0;" parent="1" vertex="1">
                    <mxGeometry x="380" y="330" width="160" height="30" as="geometry"/>
                </mxCell>
                <mxCell id="rlpLy5eyP_Tx5Tw7G8M6-5" value="" style="aspect=fixed;html=1;points=[];align=center;image;fontSize=12;image=img/lib/azure2/networking/Virtual_Networks.svg;" parent="1" vertex="1">
                    <mxGeometry x="370" y="335" width="33.5" height="20" as="geometry"/>
                </mxCell>
                <mxCell id="rlpLy5eyP_Tx5Tw7G8M6-9" value="" style="rounded=0;whiteSpace=wrap;html=1;dashed=1;" parent="1" vertex="1">
                    <mxGeometry x="400" y="150" width="90" height="90" as="geometry"/>
                </mxCell>
                <mxCell id="rlpLy5eyP_Tx5Tw7G8M6-10" value="adds-snet" style="text;html=1;strokeColor=none;fillColor=none;align=right;verticalAlign=middle;whiteSpace=wrap;rounded=0;" parent="1" vertex="1">
                    <mxGeometry x="400" y="240" width="90" height="20" as="geometry"/>
                </mxCell>
                <mxCell id="rlpLy5eyP_Tx5Tw7G8M6-13" value="172.16.0.0/24" style="text;html=1;strokeColor=none;fillColor=none;align=right;verticalAlign=middle;whiteSpace=wrap;rounded=0;" parent="1" vertex="1">
                    <mxGeometry x="400" y="260" width="90" height="20" as="geometry"/>
                </mxCell>
                <mxCell id="rlpLy5eyP_Tx5Tw7G8M6-17" value="172.16.0.0/20" style="text;html=1;strokeColor=none;fillColor=none;align=right;verticalAlign=middle;whiteSpace=wrap;rounded=0;" parent="1" vertex="1">
                    <mxGeometry x="460" y="355" width="80" height="30" as="geometry"/>
                </mxCell>
                <mxCell id="rlpLy5eyP_Tx5Tw7G8M6-23" value="" style="aspect=fixed;html=1;points=[];align=center;image;fontSize=12;image=img/lib/azure2/networking/Network_Security_Groups.svg;dashed=1;" parent="1" vertex="1">
                    <mxGeometry x="473.53" y="150" width="16.47" height="20" as="geometry"/>
                </mxCell>
                <mxCell id="13" value="" style="rounded=0;whiteSpace=wrap;html=1;dashed=1;" vertex="1" parent="1">
                    <mxGeometry x="270" y="150" width="90" height="90" as="geometry"/>
                </mxCell>
                <mxCell id="14" value="desktop-subnet" style="text;html=1;strokeColor=none;fillColor=none;align=right;verticalAlign=middle;whiteSpace=wrap;rounded=0;" vertex="1" parent="1">
                    <mxGeometry x="275" y="240" width="90" height="20" as="geometry"/>
                </mxCell>
                <mxCell id="15" value="172.16.1.0/24" style="text;html=1;strokeColor=none;fillColor=none;align=right;verticalAlign=middle;whiteSpace=wrap;rounded=0;" vertex="1" parent="1">
                    <mxGeometry x="275" y="260" width="90" height="20" as="geometry"/>
                </mxCell>
                <mxCell id="16" value="" style="aspect=fixed;html=1;points=[];align=center;image;fontSize=12;image=img/lib/azure2/networking/Network_Security_Groups.svg;dashed=1;" vertex="1" parent="1">
                    <mxGeometry x="343.53" y="150" width="16.47" height="20" as="geometry"/>
                </mxCell>
                <mxCell id="17" value="" style="aspect=fixed;html=1;points=[];align=center;image;fontSize=12;image=img/lib/azure2/compute/Virtual_Machine.svg;" vertex="1" parent="1">
                    <mxGeometry x="428.83" y="180" width="32.34" height="30" as="geometry"/>
                </mxCell>
                <mxCell id="18" value="" style="aspect=fixed;html=1;points=[];align=center;image;fontSize=12;image=img/lib/azure2/compute/Virtual_Machine.svg;" vertex="1" parent="1">
                    <mxGeometry x="306.33" y="180" width="32.34" height="30" as="geometry"/>
                </mxCell>
                <mxCell id="19" value="session-host" style="text;html=1;strokeColor=none;fillColor=none;align=center;verticalAlign=middle;whiteSpace=wrap;rounded=0;" vertex="1" parent="1">
                    <mxGeometry x="270" y="210" width="90" height="20" as="geometry"/>
                </mxCell>
                <mxCell id="20" value="adds" style="text;html=1;strokeColor=none;fillColor=none;align=center;verticalAlign=middle;whiteSpace=wrap;rounded=0;" vertex="1" parent="1">
                    <mxGeometry x="400" y="210" width="90" height="20" as="geometry"/>
                </mxCell>
            </root>
        </mxGraphModel>
    </diagram>
</mxfile>